<?xml version="1.0" standalone="no"?>
<!DOCTYPE svg PUBLIC "-//W3C//DTD SVG 20010904//EN"
 "http://www.w3.org/TR/2001/REC-SVG-20010904/DTD/svg10.dtd">
<svg version="1.0" xmlns="http://www.w3.org/2000/svg"
 width="700.000000pt" height="700.000000pt" viewBox="0 0 700.000000 700.000000"
 preserveAspectRatio="xMidYMid meet">
<metadata>
Created by potrace 1.11, written by Peter Selinger 2001-2013
</metadata>
<g transform="translate(0.000000,700.000000) scale(0.100000,-0.100000)"
fill="#000000" stroke="none">
<path d="M2 3513 l3 -3156 275 0 275 0 0 3154 0 3154 -278 2 -277 2 2 -3156z"/>
<path d="M1337 6419 c-193 -54 -344 -189 -415 -369 -32 -81 -40 -132 -40 -234
1 -242 155 -468 379 -557 109 -43 253 -57 349 -34 14 3 35 8 48 11 12 2 47 15
77 29 350 154 475 577 266 898 -78 119 -199 209 -341 252 -83 25 -240 27 -323
4z"/>
<path d="M3229 5555 c-3 -2 -41 -5 -85 -6 -248 -6 -560 -91 -824 -224 -149
-75 -195 -102 -235 -137 -23 -21 -73 -53 -111 -73 -38 -20 -85 -49 -105 -65
-20 -15 -56 -38 -81 -50 -56 -26 -90 -56 -154 -140 -262 -339 -379 -597 -387
-855 -7 -186 52 -379 145 -476 140 -146 396 -279 618 -319 115 -21 142 -23
365 -24 l220 -1 59 30 c211 106 207 453 -6 545 -47 20 -72 23 -228 26 -96 1
-195 5 -220 8 -95 12 -122 16 -138 25 -9 4 -33 11 -53 15 -62 11 -71 24 -73
103 0 39 2 74 5 77 3 4 43 -7 88 -24 45 -16 94 -32 109 -34 76 -13 145 -17
308 -21 225 -5 287 -24 386 -121 166 -163 172 -466 13 -642 -91 -100 -201
-142 -377 -142 -59 0 -108 -2 -108 -4 0 -2 18 -40 40 -84 22 -44 40 -82 40
-85 0 -2 -58 -36 -128 -75 -193 -106 -509 -316 -636 -422 -11 -10 -65 -55
-118 -99 -53 -45 -109 -97 -123 -115 -66 -87 -83 -208 -42 -306 31 -73 118
-201 162 -238 28 -23 459 -288 550 -338 11 -6 142 -84 290 -174 300 -181 317
-191 393 -233 139 -76 276 -69 393 22 136 106 195 294 139 443 -25 67 -63 117
-122 162 -36 27 -627 386 -738 448 -19 11 -39 23 -43 27 -24 23 452 278 683
367 69 26 143 59 165 72 l39 25 16 -23 c8 -12 24 -39 35 -59 11 -20 59 -101
107 -181 47 -80 95 -161 105 -180 11 -19 62 -105 113 -190 51 -85 104 -175
118 -200 14 -25 44 -76 67 -115 23 -38 75 -126 115 -195 40 -69 108 -183 151
-255 42 -71 86 -146 97 -165 56 -100 187 -320 214 -359 110 -166 299 -213 477
-121 144 74 222 201 215 347 -3 79 -19 114 -167 366 -67 114 -130 222 -141
240 -10 18 -154 262 -319 542 -165 281 -344 584 -397 675 -53 91 -163 278
-245 415 -81 138 -161 275 -178 305 -16 30 -36 63 -44 72 -8 9 -41 67 -72 130
-51 101 -181 348 -294 558 -43 81 -156 284 -249 448 -32 57 -58 105 -58 107 0
1 -18 34 -40 71 -22 38 -40 74 -40 80 0 11 111 41 195 52 28 4 106 7 175 6
145 0 258 -25 378 -81 179 -83 294 -179 461 -383 47 -58 99 -117 116 -132 97
-88 254 -114 388 -65 232 84 325 294 215 485 -12 20 -51 75 -87 122 -243 316
-571 574 -876 689 -33 13 -69 27 -80 31 -53 22 -168 51 -265 66 -19 3 -38 8
-41 10 -3 1 -55 6 -115 10 -60 3 -112 8 -115 10 -3 2 -8 2 -10 -1z"/>
<path d="M5569 4595 c-1 0 -3 -17 -4 -37 l-2 -38 719 0 719 1 -3 37 -3 37
-712 0 c-392 0 -714 0 -714 0z"/>
<path d="M4849 3441 c0 -3 -2 -14 -4 -25 -9 -48 -41 -46 720 -46 l713 0 4 23
c10 57 62 53 -717 53 -393 0 -715 -2 -716 -5z"/>
<path d="M4999 2388 c-1 -4 -1 -20 -2 -35 l-1 -28 716 -2 716 -2 4 34 c2 19 2
36 -2 37 -21 6 -1430 3 -1431 -4z"/>
</g>
</svg>
